<?xml version="1.0" encoding="iso-8859-1"?>
<!-- Generator: Adobe Illustrator 19.0.0, SVG Export Plug-In . SVG Version: 6.00 Build 0)  -->
<svg version="1.1" id="Capa_1" xmlns="http://www.w3.org/2000/svg" xmlns:xlink="http://www.w3.org/1999/xlink" x="0px" y="0px"
	 viewBox="0 0 512 512" style="enable-background:new 0 0 512 512;" xml:space="preserve">
<g>
	<g>
		<path style="fill:#A4C2F7;" d="M179.059,451.119c12.872,31.214,43.304,51.579,77.067,51.572s64.188-20.382,77.049-51.6
			C282.042,458.093,230.194,458.102,179.059,451.119L179.059,451.119z"/>
		<path style="fill:#A4C2F7;" d="M128.659,443.471c99.617,17.197,155.075,17.197,254.693-0.001l88.348-15.252l0,0
			c-43.407-41.206-68.026-98.404-68.115-158.255v-83.782c-0.268-49.312-29.127-93.987-73.967-114.507
			c-46.735-21.324-100.427-21.298-147.142,0.07c-36.807,16.97-76.655,58.194-77.009,114.437v83.782
			c1.013,59.477-22.564,116.736-65.164,158.255l0,0L128.659,443.471z"/>
	</g>
	
		<linearGradient id="SVGID_1_" gradientUnits="userSpaceOnUse" x1="-45.7033" y1="652.3917" x2="-44.9162" y2="651.6186" gradientTransform="matrix(393.5183 0 0 -400.6675 18073.9922 261552.5938)">
		<stop  offset="0" style="stop-color:#D4E1F4"/>
		<stop  offset="0.1717" style="stop-color:#D4E1F4"/>
		<stop  offset="0.2" style="stop-color:#D4E1F4"/>
		<stop  offset="0.2001" style="stop-color:#DAE4F4"/>
		<stop  offset="0.2007" style="stop-color:#EBEBF4"/>
		<stop  offset="0.2014" style="stop-color:#F6F1F4"/>
		<stop  offset="0.2023" style="stop-color:#FDF4F4"/>
		<stop  offset="0.205" style="stop-color:#FFF5F4"/>
		<stop  offset="0.2522" style="stop-color:#FFF5F4"/>
		<stop  offset="0.26" style="stop-color:#FFF5F4"/>
		<stop  offset="0.26" style="stop-color:#D4E1F4"/>
		<stop  offset="0.3974" style="stop-color:#D4E1F4"/>
		<stop  offset="0.42" style="stop-color:#D4E1F4"/>
		<stop  offset="0.4201" style="stop-color:#DAE4F4"/>
		<stop  offset="0.4207" style="stop-color:#EBEBF4"/>
		<stop  offset="0.4214" style="stop-color:#F6F1F4"/>
		<stop  offset="0.4223" style="stop-color:#FDF4F4"/>
		<stop  offset="0.425" style="stop-color:#FFF5F4"/>
		<stop  offset="0.4894" style="stop-color:#FFF5F4"/>
		<stop  offset="0.5" style="stop-color:#FFF5F4"/>
		<stop  offset="0.5" style="stop-color:#F9F2F4"/>
		<stop  offset="0.5001" style="stop-color:#E8EBF4"/>
		<stop  offset="0.5003" style="stop-color:#DDE5F4"/>
		<stop  offset="0.5005" style="stop-color:#D6E2F4"/>
		<stop  offset="0.501" style="stop-color:#D4E1F4"/>
		<stop  offset="0.7062" style="stop-color:#D4E1F4"/>
		<stop  offset="0.74" style="stop-color:#D4E1F4"/>
		<stop  offset="0.741" style="stop-color:#FFF5F4"/>
		<stop  offset="0.8346" style="stop-color:#FFF5F4"/>
		<stop  offset="0.85" style="stop-color:#FFF5F4"/>
		<stop  offset="0.851" style="stop-color:#D4E1F4"/>
	</linearGradient>
	<path style="fill:url(#SVGID_1_);" d="M135.432,443.471c99.617,17.197,117.197,17.197,216.814-0.001l88.347-15.252l0,0
		c-43.407-41.206-68.026-98.404-68.115-158.255v-83.782c-0.268-49.312-29.127-93.987-73.967-114.507
		c-46.538-21.268-62.796-21.353-109.263,0.07c-36.807,16.97-76.655,58.194-77.009,114.437v83.782
		c1.013,59.477-22.564,116.736-65.164,158.255l0,0L135.432,443.471z"/>
	<path style="fill:#FFFFFF;" d="M139.523,186.182v83.782c-0.09,59.85-24.708,117.048-68.115,158.255l3.818,0.659
		c-0.802,1.602-1.222,3.368-1.224,5.159l-33.7-5.818c43.407-41.206,68.026-98.404,68.115-158.255v-83.782
		c0.269-49.312,29.127-93.987,73.967-114.507c24.904-11.282,52.083-16.644,79.406-15.666c-16.862,2.486-33.188,7.782-48.3,15.666
		C168.65,92.195,139.792,136.87,139.523,186.182z"/>
	<g>
		<path style="fill:#428DFF;" d="M256.002,465.745c-43.276-0.592-86.417-4.975-128.927-13.1l0,0L38.72,437.391
			c-3.431-0.592-6.246-3.049-7.295-6.369c-1.049-3.32-0.156-6.948,2.313-9.404c40.845-39.771,63.434-94.655,62.418-151.654v-83.782
			c0.372-58.827,41.664-104.1,82.418-122.891c49.151-22.626,105.734-22.656,154.909-0.082
			c48.266,21.934,79.298,70.011,79.409,123.027v83.728c-0.059,57.403,23.596,112.282,65.368,151.654
			c2.469,2.455,3.361,6.083,2.313,9.404c-1.049,3.32-3.863,5.778-7.294,6.369l-88.346,15.255
			C342.422,460.771,299.28,465.154,256.002,465.745L256.002,465.745z M130.239,434.3c98.727,17.036,152.786,17.036,251.532,0
			l71.268-12.309c-37.77-41.631-58.714-95.816-58.763-152.027v-83.782c-0.462-45.611-27.133-86.885-68.527-106.045
			C281.504,59.829,230.6,59.852,186.375,80.2c-35.409,16.327-71.282,55.446-71.6,106.036v83.727
			c0.989,55.865-18.934,110.084-55.859,152.018L130.239,434.3z"/>
		<path style="fill:#428DFF;" d="M152.011,195.491h-0.059c-5.139-0.034-9.279-4.225-9.25-9.364
			c0.277-43.582,34.932-71.145,55.368-80.564c36.928-16.511,79.139-16.517,116.073-0.019c3.037,1.375,5.107,4.27,5.426,7.589
			c0.319,3.319-1.162,6.555-3.881,8.483c-2.72,1.928-6.263,2.255-9.29,0.855c-31.987-14.291-68.545-14.291-100.532,0
			c-16.446,7.582-44.328,29.537-44.546,63.764C161.29,191.356,157.131,195.491,152.011,195.491L152.011,195.491z"/>
		<path style="fill:#428DFF;" d="M217.175,69.382c-2.469,0.001-4.838-0.979-6.584-2.725c-1.746-1.746-2.726-4.115-2.725-6.584
			V46.545C207.866,20.839,228.705,0,254.411,0s46.545,20.839,46.545,46.545V59.4c-0.001,2.796-1.259,5.444-3.425,7.211
			c-2.167,1.767-5.013,2.468-7.752,1.907c-23.303-4.746-47.345-4.529-70.559,0.636C218.549,69.307,217.863,69.383,217.175,69.382
			L217.175,69.382z M254.411,18.618c-15.417,0.017-27.91,12.51-27.927,27.927v2.273c18.492-2.921,37.316-3.08,55.855-0.473v-1.8
			C282.322,31.129,269.828,18.635,254.411,18.618L254.411,18.618z"/>
		<path style="fill:#428DFF;" d="M256.111,512c-37.309-0.44-70.853-22.831-85.568-57.118c-1.357-3.071-0.956-6.634,1.05-9.327
			c2.006-2.692,5.306-4.096,8.637-3.673c50.355,6.918,101.42,6.909,151.773-0.027c3.327-0.397,6.615,1.001,8.636,3.673
			c2.007,2.692,2.408,6.257,1.05,9.328C326.98,489.155,293.43,511.558,256.111,512L256.111,512z M196.339,462.482
			c13.739,19.387,36.027,30.905,59.789,30.9c23.761-0.005,46.044-11.535,59.775-30.927
			C276.164,466.754,236.079,466.764,196.339,462.482L196.339,462.482z"/>
	</g>
</g>
<g>
</g>
<g>
</g>
<g>
</g>
<g>
</g>
<g>
</g>
<g>
</g>
<g>
</g>
<g>
</g>
<g>
</g>
<g>
</g>
<g>
</g>
<g>
</g>
<g>
</g>
<g>
</g>
<g>
</g>
</svg>
