<?xml version="1.0" encoding="iso-8859-1"?>
<!-- Generator: Adobe Illustrator 19.0.0, SVG Export Plug-In . SVG Version: 6.00 Build 0)  -->
<svg version="1.1" id="Capa_1" xmlns="http://www.w3.org/2000/svg" xmlns:xlink="http://www.w3.org/1999/xlink" x="0px" y="0px"
	 viewBox="0 0 512 512" style="enable-background:new 0 0 512 512;" xml:space="preserve">
<g>
	<path style="fill:#A4C2F7;" d="M502.519,232.296l-29.661-5.704c-20.554-3.952-37.65-18.16-45.297-37.643s-4.78-41.526,7.598-58.405
		l18.623-25.395l-40.227-40.227l-25.008,16.941c-17.329,11.739-39.463,13.781-58.647,5.412s-32.743-25.983-35.926-46.67
		l-4.788-31.124h-56.889l-7.367,38.309c-3.876,20.156-17.623,37.015-36.586,44.87s-40.605,5.654-57.598-5.858L98.446,64.924
		L58.219,105.15l18.623,25.395c12.378,16.878,15.245,38.921,7.598,58.405c-7.647,19.483-24.743,33.69-45.297,37.643l-29.661,5.704
		v56.889l31.125,4.788c20.687,3.183,38.301,16.742,46.67,35.926c8.369,19.184,6.327,41.319-5.412,58.647l-16.94,25.007
		l40.226,40.227l25.395-18.623c16.878-12.377,38.921-15.245,58.404-7.598s33.69,24.743,37.643,45.297l5.704,29.662h56.889
		l3.368-21.891c3.244-21.088,17.263-38.951,36.974-47.116c19.712-8.165,42.256-5.446,59.461,7.171l17.861,13.098l40.226-40.227
		l-16.94-25.007c-11.739-17.329-13.782-39.463-5.412-58.647c8.369-19.184,25.983-32.743,46.67-35.926l31.125-4.788V232.296z"/>
	
		<linearGradient id="SVGID_1_" gradientUnits="userSpaceOnUse" x1="-48.7493" y1="652.5572" x2="-48.0145" y2="651.879" gradientTransform="matrix(455.1111 0 0 -493.037 22260.9258 321823.6563)">
		<stop  offset="0" style="stop-color:#D4E1F4"/>
		<stop  offset="0.1717" style="stop-color:#D4E1F4"/>
		<stop  offset="0.2" style="stop-color:#D4E1F4"/>
		<stop  offset="0.2001" style="stop-color:#DAE4F4"/>
		<stop  offset="0.2007" style="stop-color:#EBEBF4"/>
		<stop  offset="0.2014" style="stop-color:#F6F1F4"/>
		<stop  offset="0.2023" style="stop-color:#FDF4F4"/>
		<stop  offset="0.205" style="stop-color:#FFF5F4"/>
		<stop  offset="0.2522" style="stop-color:#FFF5F4"/>
		<stop  offset="0.26" style="stop-color:#FFF5F4"/>
		<stop  offset="0.26" style="stop-color:#D4E1F4"/>
		<stop  offset="0.3974" style="stop-color:#D4E1F4"/>
		<stop  offset="0.42" style="stop-color:#D4E1F4"/>
		<stop  offset="0.4201" style="stop-color:#DAE4F4"/>
		<stop  offset="0.4207" style="stop-color:#EBEBF4"/>
		<stop  offset="0.4214" style="stop-color:#F6F1F4"/>
		<stop  offset="0.4223" style="stop-color:#FDF4F4"/>
		<stop  offset="0.425" style="stop-color:#FFF5F4"/>
		<stop  offset="0.4894" style="stop-color:#FFF5F4"/>
		<stop  offset="0.5" style="stop-color:#FFF5F4"/>
		<stop  offset="0.5" style="stop-color:#F9F2F4"/>
		<stop  offset="0.5001" style="stop-color:#E8EBF4"/>
		<stop  offset="0.5003" style="stop-color:#DDE5F4"/>
		<stop  offset="0.5005" style="stop-color:#D6E2F4"/>
		<stop  offset="0.501" style="stop-color:#D4E1F4"/>
		<stop  offset="0.7062" style="stop-color:#D4E1F4"/>
		<stop  offset="0.74" style="stop-color:#D4E1F4"/>
		<stop  offset="0.741" style="stop-color:#FFF5F4"/>
		<stop  offset="0.8346" style="stop-color:#FFF5F4"/>
		<stop  offset="0.85" style="stop-color:#FFF5F4"/>
		<stop  offset="0.851" style="stop-color:#D4E1F4"/>
	</linearGradient>
	<path style="fill:url(#SVGID_1_);" d="M464.593,232.296l-20.18-5.704c-20.554-3.952-37.65-18.16-45.297-37.643
		c-7.647-19.483-4.78-41.526,7.598-58.405l18.623-25.395l-36.595-29.298l-28.444,9.481c-37.111,25.14-59.507-0.424-66.323-44.727
		l-4.788-31.124h-56.889l-7.367,38.309c-3.876,20.156-17.623,37.015-36.586,44.87s-40.605,5.654-57.598-5.858L98.446,64.924
		L58.219,105.15l18.623,25.395c12.378,16.878,15.245,38.921,7.598,58.405c-7.647,19.483-24.743,33.69-45.297,37.643l-29.661,5.704
		v56.889l31.125,4.788c20.687,3.183,38.301,16.742,46.67,35.926c8.369,19.184,6.327,41.319-5.412,58.647l-16.94,25.007
		l40.226,40.227l25.395-18.623c16.878-12.377,38.921-15.245,58.404-7.598s33.69,24.743,37.643,45.297l5.704,29.662h56.889
		l3.368-21.891c6.967-45.287,35.743-55.541,67.743-53.96l28.444,9.482l29.891-22.595l-16.94-25.007
		c-11.739-17.329-13.782-39.463-5.412-58.647c8.369-19.184,25.983-32.743,46.67-35.926l21.643-4.788V232.296z"/>
	<circle style="fill:#7FACFA;" cx="260.741" cy="260.741" r="90.074"/>
	<circle style="fill:#A4C2F7;" cx="260.741" cy="260.741" r="42.667"/>
	<path style="fill:#FFFFFF;" d="M39.143,293.442c20.554,3.953,37.649,18.16,45.296,37.643s4.78,41.526-7.597,58.404l-18.623,25.395
		l40.227,40.227l20.834-14.113l-32.617-26.113l18.623-25.396c12.377-16.878,15.244-38.921,7.597-58.404
		c-7.647-19.483-24.743-33.69-45.296-37.642l-20.18-5.704V230.85l21.643-4.787c20.687-3.183,38.301-16.742,46.67-35.927
		c8.369-19.184,6.327-41.319-5.412-58.647l-16.94-25.007l29.891-22.595l-0.248-4.532l-17.861-13.1l-40.226,40.227l16.94,25.007
		c11.738,17.329,13.781,39.463,5.412,58.647s-25.983,32.743-46.67,35.927L9.481,230.85v56.889L39.143,293.442z"/>
	<g>
		<path style="fill:#428DFF;" d="M289.185,512h-56.889c-4.548,0.002-8.456-3.227-9.31-7.694l-5.704-29.657
			c-3.342-17.36-15.342-31.798-31.798-38.257c-16.456-6.459-35.074-4.038-49.331,6.414l-25.398,18.62
			c-3.774,2.766-9.002,2.365-12.31-0.944l-40.222-40.222c-3.213-3.214-3.694-8.255-1.148-12.019l16.94-25.009
			c9.915-14.637,11.641-33.334,4.573-49.539c-7.069-16.205-21.946-27.659-39.42-30.35l-31.125-4.787
			c-4.625-0.713-8.039-4.691-8.042-9.371v-56.889c0.001-4.546,3.226-8.453,7.689-9.315l29.662-5.704
			c17.362-3.334,31.805-15.333,38.265-31.79c6.46-16.457,4.036-35.076-6.422-49.331l-18.625-25.398
			c-2.766-3.776-2.365-9.005,0.944-12.315l40.227-40.222c3.218-3.208,8.256-3.689,12.023-1.148l32.301,21.88
			c14.355,9.721,32.634,11.578,48.651,4.943S212.344,63.024,215.62,46l7.366-38.305c0.854-4.467,4.762-7.697,9.31-7.695h56.889
			c4.678,0.001,8.657,3.413,9.37,8.037l4.787,31.12c2.688,17.474,14.141,32.353,30.345,39.423
			c16.205,7.07,34.902,5.345,49.539-4.571l25.014-16.935c3.764-2.546,8.805-2.065,12.019,1.148l40.222,40.222
			c3.309,3.307,3.71,8.533,0.944,12.306l-18.62,25.398c-10.454,14.257-12.876,32.876-6.417,49.332
			c6.459,16.457,20.899,28.458,38.26,31.797l29.657,5.704c4.467,0.858,7.695,4.766,7.694,9.315v56.889
			c-0.002,4.678-3.414,8.656-8.037,9.37l-31.12,4.787c-17.475,2.688-32.355,14.142-39.424,30.348
			c-7.07,16.206-5.344,34.904,4.573,49.542l16.935,25.009c2.546,3.764,2.065,8.805-1.148,12.019l-40.222,40.222
			c-3.308,3.309-8.536,3.71-12.31,0.944l-17.861-13.093c-14.533-10.662-33.578-12.961-50.23-6.063
			c-16.652,6.897-28.494,21.989-31.233,39.804l-3.366,21.889C297.843,508.588,293.864,512,289.185,512z M240.13,493.037h40.921
			l2.13-13.852c3.748-24.364,19.944-45.003,42.719-54.436c22.774-9.433,48.821-6.291,68.698,8.288l11.301,8.287l28.935-28.935
			l-12.546-18.528c-13.562-20.02-15.921-45.592-6.252-67.755c9.669-22.163,30.019-37.828,53.919-41.504l23.083-3.556V240.13
			l-21.963-4.222c-23.748-4.566-43.501-20.98-52.338-43.491c-8.837-22.51-5.526-47.979,8.773-67.481l13.815-18.833l-28.935-28.935
			l-18.528,12.546c-20.02,13.559-45.591,15.917-67.753,6.248c-22.162-9.669-37.827-30.017-41.506-53.915l-3.551-23.083H240.13
			l-5.889,30.611c-4.478,23.287-20.358,42.764-42.265,51.841s-46.91,6.538-66.545-6.758L99.611,77.167l-28.935,28.935l13.815,18.833
			c14.301,19.501,17.614,44.969,8.779,67.479s-28.587,38.926-52.334,43.493l-21.972,4.222v40.917l23.083,3.556
			c23.901,3.675,44.252,19.339,53.922,41.502s7.311,47.736-6.251,67.757l-12.551,18.528l28.935,28.935l18.838-13.815
			c19.501-14.298,44.968-17.609,67.477-8.772c22.509,8.837,38.921,28.59,43.486,52.337L240.13,493.037z"/>
		<path style="fill:#428DFF;" d="M260.741,360.296c-54.983,0-99.556-44.573-99.556-99.556s44.573-99.556,99.556-99.556
			s99.556,44.573,99.556,99.556C360.235,315.698,315.698,360.235,260.741,360.296L260.741,360.296z M260.741,180.148
			c-44.51,0-80.593,36.083-80.593,80.593s36.083,80.593,80.593,80.593s80.593-36.083,80.593-80.593
			C341.282,216.252,305.23,180.199,260.741,180.148z"/>
		<path style="fill:#428DFF;" d="M260.741,312.889c-28.801,0-52.148-23.348-52.148-52.148c0-28.801,23.348-52.148,52.148-52.148
			c28.801,0,52.148,23.348,52.148,52.148C312.855,289.527,289.527,312.855,260.741,312.889z M260.741,227.556
			c-18.328,0-33.185,14.858-33.185,33.185s14.858,33.185,33.185,33.185s33.185-14.858,33.185-33.185
			C293.904,242.422,279.059,227.578,260.741,227.556L260.741,227.556z"/>
	</g>
</g>
<g>
</g>
<g>
</g>
<g>
</g>
<g>
</g>
<g>
</g>
<g>
</g>
<g>
</g>
<g>
</g>
<g>
</g>
<g>
</g>
<g>
</g>
<g>
</g>
<g>
</g>
<g>
</g>
<g>
</g>
</svg>
