<?xml version="1.0" encoding="iso-8859-1"?>
<!-- Generator: Adobe Illustrator 19.0.0, SVG Export Plug-In . SVG Version: 6.00 Build 0)  -->
<svg version="1.1" id="Capa_1" xmlns="http://www.w3.org/2000/svg" xmlns:xlink="http://www.w3.org/1999/xlink" x="0px" y="0px"
	 viewBox="0 0 512 512" style="enable-background:new 0 0 512 512;" xml:space="preserve">
<g>
	<g>
		<path style="fill:#A4C2F7;" d="M134.05,319.086l128.178,41.525c14.158,4.587,21.917,19.782,17.331,33.94l0,0
			c-4.587,14.158-19.782,21.917-33.94,17.331L117.44,370.357c-14.158-4.587-21.917-19.782-17.331-33.94l0,0
			C104.696,322.258,119.891,314.499,134.05,319.086z"/>
		<path style="fill:#A4C2F7;" d="M35.93,179.649c-4.758,0.03-9.421,1.335-13.503,3.781c-1.386-0.82-2.842-1.517-4.35-2.081
			c0.694,1.315,1.107,2.76,1.212,4.243c-3.504,2.738-6.28,6.296-8.081,10.362c-0.364,0.07-0.732,0.12-1.101,0.149
			c-0.379-0.052-0.754-0.128-1.123-0.228v126.208c0.901-0.333,1.847-0.526,2.807-0.572c1.078,0.011,2.146,0.203,3.161,0.566
			c1.503,1.91,3.256,3.609,5.211,5.053c0.324,0.742,0.567,1.517,0.722,2.311c0.526-0.263,1.008-0.594,1.514-0.888
			c4.088,2.458,8.762,3.77,13.532,3.798c14.864-0.044,26.904-12.083,26.947-26.947v-98.807
			C62.833,191.732,50.794,179.693,35.93,179.649z"/>
	</g>
	<path style="fill:#7FACFA;" d="M467.088,35.93L467.088,35.93c19.844,0,35.93,16.086,35.93,35.93V440.14
		c0,19.844-16.086,35.93-35.93,35.93l0,0c-19.844,0-35.93-16.086-35.93-35.93V71.86C431.158,52.016,447.244,35.93,467.088,35.93z"/>
	<g>
		<path style="fill:#A4C2F7;" d="M452.597,38.298c-0.498,4.606-4.458,8.052-9.088,7.91c-1.155-0.024-2.296-0.256-3.368-0.684
			v421.504c0.207-0.011,0.348-0.114,0.561-0.114c4.541-0.15,8.456,3.169,9.052,7.673c15.487-4.307,26.233-18.372,26.317-34.447
			V71.86C476.001,56.875,466.649,43.503,452.597,38.298z"/>
		<polygon style="fill:#A4C2F7;" points="431.158,413.193 242.526,296.421 242.526,215.579 431.158,98.807 		"/>
	</g>
	<polygon style="fill:#E3E7F2;" points="404.211,404.211 62.877,296.421 62.877,215.579 404.211,107.789 	"/>
	<g>
		<path style="fill:#428DFF;" d="M467.088,485.053c-24.792-0.029-44.883-20.12-44.912-44.912V71.86
			c0-24.804,20.108-44.912,44.912-44.912C491.892,26.947,512,47.055,512,71.86V440.14
			C511.971,464.933,491.88,485.024,467.088,485.053z M467.088,44.912c-14.876,0.016-26.931,12.071-26.947,26.947V440.14
			c0,14.883,12.065,26.947,26.947,26.947c14.883,0,26.947-12.065,26.947-26.947V71.86C494.019,56.984,481.964,44.929,467.088,44.912
			z"/>
		<path style="fill:#428DFF;" d="M431.158,422.175c-0.92,0-1.834-0.142-2.711-0.421L60.167,304.982
			c-3.733-1.182-6.271-4.646-6.272-8.561v-80.842c0.001-3.916,2.539-7.38,6.272-8.561L428.447,90.246
			c2.729-0.864,5.707-0.376,8.017,1.316c2.31,1.691,3.675,4.383,3.676,7.246v314.386
			C440.139,418.153,436.118,422.174,431.158,422.175L431.158,422.175z M71.86,289.842l350.316,111.079V111.079L71.86,222.158
			V289.842z"/>
		<path style="fill:#428DFF;" d="M253.903,422.184c-3.753-0.002-7.483-0.594-11.053-1.754l-128.175-41.526
			c-18.848-6.15-29.177-26.381-23.105-45.254c6.146-18.847,26.374-29.177,45.246-23.105l128.193,41.526
			c16.781,5.489,27.091,22.352,24.329,39.79C286.576,409.299,271.559,422.15,253.903,422.184z M125.772,326.763
			c-7.794,0.002-14.702,5.019-17.114,12.43c-3.003,9.433,2.15,19.525,11.553,22.623l128.184,41.526l0,0
			c9.436,3.046,19.557-2.128,22.612-11.562c3.055-9.434-2.111-19.559-11.542-22.622l-128.184-41.526
			C129.501,327.057,127.643,326.764,125.772,326.763L125.772,326.763z"/>
		<path style="fill:#428DFF;" d="M35.93,341.333c-19.835-0.02-35.91-16.095-35.93-35.93v-98.807c0-19.843,16.086-35.93,35.93-35.93
			s35.93,16.086,35.93,35.93v98.807C71.84,325.239,55.765,341.314,35.93,341.333z M35.93,188.632
			c-9.916,0.013-17.952,8.049-17.965,17.965v98.807c0,9.922,8.043,17.965,17.965,17.965s17.965-8.043,17.965-17.965v-98.807
			C53.882,196.68,45.846,188.644,35.93,188.632z"/>
	</g>
</g>
<g>
</g>
<g>
</g>
<g>
</g>
<g>
</g>
<g>
</g>
<g>
</g>
<g>
</g>
<g>
</g>
<g>
</g>
<g>
</g>
<g>
</g>
<g>
</g>
<g>
</g>
<g>
</g>
<g>
</g>
</svg>
