<?xml version="1.0" encoding="iso-8859-1"?>
<!-- Generator: Adobe Illustrator 19.0.0, SVG Export Plug-In . SVG Version: 6.00 Build 0)  -->
<svg version="1.1" id="Capa_1" xmlns="http://www.w3.org/2000/svg" xmlns:xlink="http://www.w3.org/1999/xlink" x="0px" y="0px"
	 viewBox="0 0 504.667 504.667" style="enable-background:new 0 0 504.667 504.667;" xml:space="preserve">
<g>
	
		<rect x="142.338" y="150.358" transform="matrix(-0.7071 -0.7071 0.7071 -0.7071 29.5702 702.6246)" style="fill:#A4C2F7;" width="35.93" height="389.661"/>
	
		<rect x="317.817" y="113.484" transform="matrix(-0.7071 -0.7071 0.7071 -0.7071 454.41 524.2571)" style="fill:#E3E7F2;" width="35.93" height="109.065"/>
	<g>
		<path style="fill:#428DFF;" d="M35.215,504.667c-2.383,0.003-4.668-0.944-6.351-2.632L3.456,476.632
			c-1.685-1.684-2.632-3.969-2.632-6.351s0.947-4.667,2.632-6.351l349.666-349.667c1.684-1.685,3.969-2.632,6.351-2.632
			s4.667,0.947,6.351,2.632l25.403,25.404c1.685,1.684,2.632,3.969,2.632,6.351c0,2.382-0.947,4.667-2.632,6.351L41.566,502.035
			C39.883,503.722,37.598,504.67,35.215,504.667z M22.509,470.281l12.706,12.702l336.961-336.965l-12.702-12.702L22.509,470.281z"/>
		<path style="fill:#428DFF;" d="M306.601,233.167c-2.383,0.003-4.668-0.945-6.351-2.632l-25.351-25.351
			c-2.269-2.269-3.155-5.576-2.325-8.675c0.831-3.099,3.251-5.52,6.351-6.351c3.099-0.831,6.406,0.056,8.675,2.325l25.351,25.351
			c2.568,2.569,3.336,6.432,1.946,9.788C313.508,230.977,310.234,233.166,306.601,233.167L306.601,233.167z"/>
		<path style="fill:#428DFF;" d="M360.123,80.842c-2.382,0.001-4.668-0.946-6.352-2.63c-1.685-1.685-2.631-3.97-2.63-6.352V8.982
			c0-4.961,4.022-8.982,8.982-8.982c4.961,0,8.982,4.022,8.982,8.982V71.86c0.001,2.382-0.946,4.668-2.63,6.352
			C364.79,79.897,362.505,80.843,360.123,80.842z"/>
		<path style="fill:#428DFF;" d="M360.123,287.439c-2.382,0.001-4.668-0.946-6.352-2.63c-1.685-1.685-2.631-3.97-2.63-6.352v-62.877
			c0-4.961,4.022-8.982,8.982-8.982c4.961,0,8.982,4.022,8.982,8.982v62.877c0.001,2.382-0.946,4.668-2.63,6.352
			C364.79,286.493,362.505,287.439,360.123,287.439z"/>
		<path style="fill:#428DFF;" d="M494.859,152.702h-62.877c-4.961,0-8.982-4.022-8.982-8.982s4.022-8.982,8.982-8.982h62.877
			c4.961,0,8.982,4.022,8.982,8.982S499.82,152.702,494.859,152.702z"/>
		<path style="fill:#428DFF;" d="M288.263,152.702h-62.877c-4.961,0-8.982-4.022-8.982-8.982s4.022-8.982,8.982-8.982h62.877
			c4.961,0,8.982,4.022,8.982,8.982S293.224,152.702,288.263,152.702z"/>
		<path style="fill:#428DFF;" d="M414.017,98.807c-3.632-0.001-6.907-2.189-8.297-5.545c-1.39-3.356-0.622-7.219,1.946-9.788
			l44.461-44.465c3.508-3.507,9.194-3.507,12.702,0c3.507,3.508,3.507,9.194,0,12.702l-44.461,44.464
			C418.686,97.863,416.4,98.81,414.017,98.807L414.017,98.807z"/>
		<path style="fill:#428DFF;" d="M458.478,251.061c-2.383,0.003-4.668-0.944-6.351-2.632l-44.461-44.465
			c-3.453-3.516-3.428-9.159,0.057-12.644c3.485-3.485,9.127-3.511,12.644-0.057l44.461,44.465c2.568,2.569,3.336,6.432,1.946,9.788
			C465.385,248.872,462.11,251.061,458.478,251.061L458.478,251.061z"/>
		<path style="fill:#428DFF;" d="M306.228,98.807c-2.383,0.003-4.668-0.944-6.351-2.632l-44.461-44.465
			c-3.508-3.507-3.508-9.194,0-12.702c3.508-3.508,9.194-3.508,12.702,0l44.46,44.465c2.568,2.569,3.336,6.432,1.946,9.788
			C313.135,96.618,309.86,98.806,306.228,98.807z"/>
	</g>
</g>
<g>
</g>
<g>
</g>
<g>
</g>
<g>
</g>
<g>
</g>
<g>
</g>
<g>
</g>
<g>
</g>
<g>
</g>
<g>
</g>
<g>
</g>
<g>
</g>
<g>
</g>
<g>
</g>
<g>
</g>
</svg>
