<?xml version="1.0" encoding="iso-8859-1"?>
<!-- Generator: Adobe Illustrator 19.0.0, SVG Export Plug-In . SVG Version: 6.00 Build 0)  -->
<svg version="1.1" id="Capa_1" xmlns="http://www.w3.org/2000/svg" xmlns:xlink="http://www.w3.org/1999/xlink" x="0px" y="0px"
	 viewBox="0 0 512.001 512.001" style="enable-background:new 0 0 512.001 512.001;" xml:space="preserve">
<g>
	<circle style="fill:#A4C2F7;" cx="256" cy="256.001" r="247.467"/>
	<ellipse style="fill:#E3E7F2;" cx="243.2" cy="256.001" rx="234.667" ry="247.467"/>
	<path style="fill:#FFFFFF;" d="M256,503.468c2.204,0,4.38-0.108,6.57-0.167c-126.714-3.494-228.436-112.831-228.436-247.3
		S135.857,12.195,262.57,8.701c-2.19-0.058-4.366-0.167-6.57-0.167C119.328,8.534,8.534,119.329,8.534,256.001
		S119.328,503.468,256,503.468L256,503.468z"/>
	<path style="fill:#7FACFA;" d="M383.035,46.815c0.974-0.388,1.893-0.901,2.734-1.527C302.127-6.236,195.922-3.383,115.166,52.557
		c0.197,1,0.507,1.975,0.923,2.906c16.877,36.371,38.6,98.1,75.684,112.321c18.031,6.915,34.697,4.308,51.787,12.683
		c2.192,1.131,4.116,2.718,5.643,4.654c8.684,12.708,3.689,31.329,12.302,35.885c6.941,3.06,10.339,10.962,7.785,18.104
		c-11.884,29.165-1.608,62.523,26.043,85.417c19.459,16.11,3.264,53.456-13.11,82.773c-2.6,4.765-1.986,10.641,1.542,14.766
		c3.529,4.125,9.238,5.642,14.349,3.811c18.423-6.785,35.35-17.089,49.838-30.338c24.861-21.379,30.233-44.673,54.87-62.821
		c0.273-0.188,0.479-0.458,0.589-0.771c6.298-18.463,25.867-58.773,6.122-69.038c-18.432-9.573-25.326-37.298-43.314-56.192
		c-2.165-2.084-4.979-3.364-7.973-3.627c-22.046-2.837-31.97-19.612-46.803-8.46c-4.61,3.951-10.995,5.102-16.695,3.01
		c-5.699-2.093-9.823-7.102-10.781-13.097c-1.407-5.508-5.897-9.689-11.49-10.702c-2.897-0.994-5.265-3.126-6.555-5.904
		c-1.291-2.778-1.393-5.962-0.284-8.817l0.094-0.26c2.93-7.973-13.557-6.758-21.942-5.36c-2.347,0.39,5.622-9.092,3.003-7.548
		c-10.305,6.083-23.104-4.419-22.552-16.373c0.559-12.123,2.825-11.546,23.612-13.933c22.373-10.417,33.204-2.829,32.491,22.765
		c13.832,2.048,18.663-4.064,14.495-18.335c-1.172-4.239-0.28-8.782,2.408-12.262C318.072,78.314,348.333,56.798,383.035,46.815z"/>
	<path style="fill:#A4C2F7;" d="M383.933,262.911c-18.432-9.573-25.326-37.298-43.314-56.192c-2.165-2.084-4.979-3.364-7.973-3.627
		c-22.046-2.837-31.97-19.612-46.803-8.46c-4.61,3.951-10.995,5.102-16.695,3.01c-5.7-2.093-9.823-7.102-10.781-13.097
		c-1.407-5.508-5.897-9.689-11.49-10.702c-2.897-0.994-5.265-3.126-6.555-5.904c-1.291-2.778-1.393-5.962-0.284-8.817l0.094-0.26
		c2.93-7.973-1.347-15.192-9.732-13.794c-2.347,0.39-6.588-0.658-9.207,0.885c-10.305,6.083-23.104-4.419-22.552-16.373
		c0.559-12.123,2.825-11.546,23.612-13.933c6.641-4.022,14.615-5.218,22.144-3.321c1.33-0.89,2.892-1.369,4.492-1.379h14.933
		c1.981-0.009,3.901,0.688,5.414,1.967c0.453-1.845,1.272-3.579,2.41-5.1c25.483-33.152,36.474-47.61,75.486-60.998
		c0.974-0.388,1.893-0.901,2.734-1.527C315.556,24.113,285.97,11.18,243.237,8.986c-1.57,2.412-4.27,3.848-7.148,3.802
		c-30.652,0.398-58.481,2.881-80.94,24.687c-11.01,10.535-24.907,17.554-39.921,20.162c0.109,5.479,0.104,11.01,0.685,16.869
		c12.549,17.163,23.545,35.409,32.857,54.523c0.602,1.34,0.859,2.81,0.749,4.275c3.593,4.593,7.438,8.982,11.518,13.148
		c20.092,20.129,42.554,21.556,66.147,32.335c17.358,6.449,29.162,22.671,29.961,41.171c1.902-0.172,3.794,0.425,5.252,1.659
		c1.458,1.234,2.36,3.001,2.505,4.905c-0.212,8.943-1.318,17.842-3.303,26.564c0.481,1.15,0.748,2.377,0.788,3.623
		c0.388,12.248,0.875,24.221,1.853,36.256c3.483-0.547,6.892,1.348,8.265,4.596c8.495,16.483,62.967,57.073,22.683,75.683
		c-0.436,0.2-0.806,0.265-1.229,0.438c0.581,1.593,0.616,3.333,0.098,4.948c-2.071,6.227-4.257,12.177-6.767,17.844
		c-2.975,6.791-5.02,13.952-6.08,21.29c1.701,0.417,3.229,1.358,4.368,2.69c13.324-6.61,25.695-14.991,36.775-24.915
		c24.861-21.379,30.233-44.673,54.87-62.821c0.273-0.188,0.479-0.458,0.589-0.771C384.109,313.486,403.678,273.176,383.933,262.911z
		"/>
	<g>
		<path style="fill:#428DFF;" d="M256,512.001c-141.385,0-256-114.615-256-256s114.615-256,256-256s256,114.615,256,256
			C511.84,397.319,397.319,511.841,256,512.001z M256,17.068c-131.959,0-238.933,106.974-238.933,238.933
			S124.041,494.934,256,494.934S494.934,387.96,494.934,256.001C494.786,124.103,387.898,17.215,256,17.068z"/>
		<path style="fill:#428DFF;" d="M293.642,435.192c-6.369-0.011-12.406-2.839-16.492-7.725c-5.827-6.802-6.778-16.523-2.379-24.325
			c26.692-47.792,22.958-65.558,15.121-72.042c-30.571-25.308-41.762-62.683-28.508-95.208c1.221-3-1.146-5.9-3.863-7.342
			c-8.346-4.417-9.591-13.758-10.692-22c-0.296-5.821-1.892-11.502-4.671-16.625c-0.692-0.698-1.478-1.299-2.333-1.783
			c-7.957-3.463-16.417-5.629-25.058-6.417c-8.885-0.978-17.627-2.983-26.05-5.975c-34.929-13.392-55.817-61.017-72.604-99.292
			c-2.717-6.192-5.292-12.075-7.767-17.4c-0.688-1.517-1.201-3.108-1.529-4.742c-0.709-3.358,0.666-6.813,3.487-8.767
			c83.539-57.879,193.414-60.833,279.942-7.525c2.472,1.523,3.999,4.198,4.054,7.101c0.055,2.903-1.371,5.634-3.783,7.249
			c-1.441,1.039-3.015,1.88-4.679,2.5l-0.033,0.017c-33.092,9.487-61.949,29.994-81.792,58.125c-1.032,1.32-1.395,3.043-0.983,4.667
			c3.342,7.748,2.4,16.678-2.483,23.558c-5.659,5.527-13.814,7.659-21.454,5.608c-4.276-0.633-7.402-4.363-7.279-8.683
			c0.383-13.717-2.996-17.025-4.042-17.717c-2.596-1.683-8.695-0.608-16.317,2.933c-0.829,0.391-1.718,0.642-2.629,0.742
			l-3.804,0.433c-4.008,0.334-7.993,0.907-11.933,1.717c-0.179,1.226-0.286,2.462-0.321,3.7c-0.023,3.381,1.732,6.526,4.621,8.283
			c1.473,1.105,3.459,1.239,5.067,0.341c3.55-2.05,8.025-1.521,11,1.3c1.108,1.103,1.885,2.494,2.242,4.017
			c5.979-0.556,11.904,1.526,16.221,5.7c2.788,3.423,3.487,8.094,1.825,12.183c-0.378,0.888-0.368,1.895,0.029,2.775
			c0.232,0.527,0.675,0.933,1.221,1.117c8.368,1.822,15.005,8.189,17.171,16.475c0.675,3.394,2.949,6.253,6.104,7.675
			c2.853,0.668,5.853-0.09,8.046-2.033c13.117-9.875,24.779-4.242,34.142,0.292c5.883,3.221,12.267,5.427,18.883,6.525
			c4.937,0.501,9.549,2.691,13.058,6.2c7.649,8.628,14.282,18.107,19.767,28.25c6.896,11.733,12.85,21.867,21.304,26.258
			c23.517,12.233,10.258,47,1.483,70.008c-1.329,3.492-2.546,6.667-3.467,9.367c-0.678,1.973-1.95,3.687-3.642,4.908
			c-10.449,8.306-19.39,18.35-26.429,29.692c-19.2,29.598-47.399,52.247-80.442,64.608
			C298.619,434.758,296.14,435.19,293.642,435.192z M125.629,55.8c1.963,4.333,3.996,8.975,6.113,13.8
			c14.692,33.5,34.813,79.375,63.083,90.217c7.251,2.517,14.765,4.202,22.396,5.025c10.397,0.996,20.561,3.684,30.092,7.958
			c3.519,1.775,6.578,4.343,8.938,7.5c4.374,7.289,6.944,15.517,7.496,24c0.204,3.209,0.888,6.369,2.029,9.375
			c10.712,5.1,15.686,17.591,11.412,28.658c-10.379,25.483-1.125,55.167,23.587,75.617c25.208,20.867,5.733,63.367-11.104,93.508
			c-0.934,1.595-0.726,3.612,0.513,4.983c1.209,1.512,3.255,2.074,5.067,1.392c17.425-6.443,33.433-16.21,47.133-28.758
			c9.611-8.701,18.03-18.634,25.038-29.542c7.743-12.269,17.413-23.209,28.638-32.4c0.85-2.375,1.858-5.025,2.946-7.875
			c5.392-14.142,16.617-43.567,6.592-48.783c-12.812-6.65-20.263-19.333-28.15-32.758c-4.834-9.003-10.674-17.43-17.408-25.117
			c-0.833-0.632-1.839-0.995-2.884-1.041c-8.442-1.315-16.601-4.051-24.129-8.092c-9.583-4.634-12.067-5.325-16.454-2.008
			c-6.648,5.374-15.535,7.086-23.704,4.567c-8.518-3.135-14.924-10.295-17.096-19.108c-0.579-1.992-0.996-3.433-5.808-4.917
			c-5.027-1.552-9.187-5.119-11.488-9.85c-1.696-3.444-2.381-7.299-1.975-11.117c-3.788-0.069-7.573,0.226-11.304,0.883
			c-4.475,0.75-8.805-1.958-10.092-6.308c-2.295-0.581-4.491-1.499-6.517-2.725c-8.263-4.985-13.186-14.047-12.871-23.692
			c0.858-18.625,10.287-19.683,27.404-21.592l2.429-0.275c13.354-5.958,23.696-6.325,31.596-1.133c3.919,2.63,6.936,6.4,8.642,10.8
			c-0.136-5.193,1.524-10.273,4.7-14.383c18.795-26.673,45.152-47.102,75.671-58.65C289.711,4.254,197.808,8.778,125.63,55.802
			L125.629,55.8z M397.759,325.851l-0.062,0.042L397.759,325.851z"/>
	</g>
</g>
<g>
</g>
<g>
</g>
<g>
</g>
<g>
</g>
<g>
</g>
<g>
</g>
<g>
</g>
<g>
</g>
<g>
</g>
<g>
</g>
<g>
</g>
<g>
</g>
<g>
</g>
<g>
</g>
<g>
</g>
</svg>
